<svg width="1172" height="1172" version="1.1" xmlns="http://www.w3.org/2000/svg">
    <style>
        path {fill: #12171c}
        @media (prefers-color-scheme: dark) {path {fill: #f5f5f5}}
    </style>
    <path d="m586 359c126 0 227 102 227 227 0 126-101 227-227 227-125 0-227-101-227-227 0-125 102-227 227-227zm154 257v-11h-73c-7 0-13 4-16 11-12 24-36 41-65 41-28 0-53-17-64-41-3-7-9-11-17-11h-72v11l135 135h37zm-192-30c0 21 17 38 38 38s38-17 38-38-17-38-38-38-38 17-38 38zm192-18v-11l-135-135h-37l-135 135v11h72c8 0 14-5 17-11 11-24 36-41 64-41 29 0 53 17 65 41 3 6 9 11 16 11zm-154-308c180 0 327 146 327 326s-147 327-327 327-326-147-326-327 146-326 326-326zm0 605c154 0 279-125 279-279 0-153-125-279-279-279-153 0-279 126-279 279 0 154 126 279 279 279zm0-865 586 586-586 586-586-586zm-525 586 525 525 525-525-525-525z"/>
</svg>